<?xml version="1.0" encoding="utf-8"?>
<svg viewBox="0 0 225 225" xmlns="http://www.w3.org/2000/svg">
  <g transform="matrix(0.10000000149011612, 0, 0, -0.10000000149011613, -2.220446049250313e-16, 224.999984741211)" fill="#000000" stroke="none">
    <path d="M967 1804 c-355 -86 -591 -447 -524 -800 65 -340 345 -574 687 -574&#10;101 0 219 23 282 56 44 23 76 20 137 -10 28 -14 60 -26 71 -26 21 0 110 55&#10;110 68 0 3 -23 29 -50 57 l-51 51 51 69 c61 83 102 167 125 255 23 87 23 263&#10;0 350 -63 243 -259 438 -501 500 -92 24 -249 26 -337 4z m295 -264 c115 -35&#10;213 -122 265 -236 27 -60 49 -179 39 -219 l-6 -25 -355 0 -354 0 11 -31 c39&#10;-114 146 -189 267 -189 56 0 79 6 130 31 34 17 69 42 78 55 14 22 22 24 99 24&#10;52 0 84 -4 84 -10 0 -43 -90 -147 -164 -189 -82 -47 -156 -64 -257 -59 -76 4&#10;-97 9 -162 41 -264 131 -327 483 -123 691 120 122 288 166 448 116z" style="fill: rgb(50, 50, 246);"/>
    <path d="M1043 1396 c-57 -18 -103 -49 -136 -91 -29 -36 -62 -104 -54 -111 2&#10;-2 128 -3 280 -2 l277 3 -24 50 c-59 128 -207 193 -343 151z" style="fill: rgb(50, 50, 246);"/>
  </g>
</svg>